<?xml version="1.0" encoding="utf-8"?>
<!-- Generator: Adobe Illustrator 28.0.0, SVG Export Plug-In . SVG Version: 6.00 Build 0)  -->
<svg version="1.1" id="Layer_1" xmlns="http://www.w3.org/2000/svg" xmlns:xlink="http://www.w3.org/1999/xlink" x="0px" y="0px"
	 viewBox="0 0 50 50" style="enable-background:new 0 0 50 50;" xml:space="preserve">
<style type="text/css">
	.st0{fill:none;}
	.st1{fill:#F1F2F2;}
	.st2{fill:#BCBEC0;}
	.st3{fill:#00619E;}
	.st4{fill:#004271;}
	.st5{fill:#808285;}
</style>
<g>
	<path class="st0" d="M43.6,27.5c0.1-0.3,0.2-0.6,0.3-0.9C43.8,26.9,43.7,27.2,43.6,27.5L43.6,27.5z"/>
	<path class="st0" d="M6.4,27.5L6.4,27.5C6.4,27.5,6.4,27.4,6.4,27.5C6.4,27.4,6.4,27.5,6.4,27.5z"/>
	<path class="st1" d="M40.6,27.5c0-0.1,0.1-0.2,0.1-0.3c0-0.1,0.1-0.2,0.1-0.2c0.1-0.2,0.1-0.4,0.2-0.6c0.1-0.2,0.2-0.5,0.2-0.7
		c2.2-6.6,2.2-12.9,2.1-17.3C43,8.2,42.6,8.1,42.2,8c0,0.1,0,0.3-0.1,0.5c-0.1,2.2-2.6,2.3-3.3,3.9c-0.7,1.7-0.9,2.5-3.7,3.3
		c-2.3,0.6-1.6,3.6-5.2,4.8c-2.4,0.8-2,2.8-5.5,5.5c-3.6,2.7-7.1,1.5-8.3,0.4c-1.1-1-2.2-2.3-1.5-5.5c-2.5-1.8-1.5-4.4-1.2-5.2
		c0.5-1.6,1.6-3,2.6-3.7c2.1-1.8,4.6-1.3,5.5-2.6c0.9-1.3,1.6-2.2,3.3-2.6c1.5-0.3,1.8-1,2.2-1.5c-1-0.1-1.9-0.1-2.9-0.1
		C18,5.1,12,6,6.7,7.7c-0.1,4.4-0.2,11,2.1,17.9c0.1,0.2,0.2,0.5,0.2,0.7c0.1,0.2,0.2,0.5,0.3,0.7c0,0.1,0.1,0.1,0.1,0.2
		c0.1,0.2,0.1,0.3,0.2,0.5c0,0.1,0.1,0.2,0.1,0.2c0,0.1,0.1,0.1,0.1,0.2l0,0h1.8h1.5h0.7h11.5h10.9l0,0h2.2l0,0h1.8
		c0.1-0.2,0.1-0.3,0.2-0.5C40.5,27.7,40.5,27.6,40.6,27.5z"/>
	<path class="st1" d="M25.1,7.8c-1.3,0.1-2.3,1.6-2.8,2c-2.2,1.9-5.1,0.7-7.2,3.4c-1.1,1.5-1.1,3.1,0.7,4.2c2.8-7.1,5.7-4.3,7.9-7.3
		c2.5-3.5,5.1-0.9,7.2-3.7c0.3-0.4,0.6-0.7,0.8-1c-0.9-0.1-1.8-0.2-2.7-0.3c-0.4,0.2-0.6,0.5-0.9,0.9C27.3,6.8,27.1,7.6,25.1,7.8z"
		/>
	<path class="st1" d="M26.1,11.6c-1.2,2.1-3.9,1.4-5.6,4c-0.5,0.7-1,1.9-1.5,3.1c4.1,0.7,8-0.8,9-1.9c1.1-1.1,2-0.5,2.6-1.8
		s2.9-0.9,3.3-2.1c0.4-1.3,0.8-2.1,2.6-2.7c1.9-0.7,2.3-1.5,2.5-2.7C39,7.2,39,7.1,39.1,7c-1.6-0.4-3.2-0.8-4.8-1.1
		c-0.7,0.2-1.4,0.7-1.9,1.7C31.2,10.5,28.1,8.3,26.1,11.6z"/>
	<path class="st1" d="M37.5,11.2c-1.5,0.6-2,1.4-2.5,2.6c-0.5,1.2-2.3,1.2-2.9,2.1c-0.6,0.8-0.8,2.1-2,2.3c-1.2,0.2-2,0.7-2.8,1.8
		c-0.7,1-4,3.9-9.3,2.3c-0.1,0.4-0.1,0.9-0.2,1.2c-0.2,2.4,0.7,3.5,3.1,3.4s4.2-2.6,5.6-5.4S31,19.4,32,17c1-2.3,4.2-1.5,5.6-4.3
		S40,10.9,41,8.9c0.2-0.5,0.5-0.8,0.7-1.1c-0.4-0.1-0.9-0.3-1.3-0.4C40.1,7.7,40,8,40,8.3C39.9,9.2,39.1,10.5,37.5,11.2z"/>
	<path class="st1" d="M44.4,27.5c0.1-0.2,0.2-0.5,0.2-0.7c0.1-0.1,0.1-0.3,0.1-0.4C47.2,18.9,47,12,46.9,7.5l0-1.5l-1.1-0.4
		c-0.4-0.2-0.9-0.3-1.3-0.5c0.2-0.8,0.1-1.6,0-2.1L44.2,2c0.7-0.5,2.5-0.6,2.5-0.6c0,0-0.1-1.1-1.3-1.3c-0.6-0.1-1.9-0.1-2.6,0
		c-0.6,0.2-1.2,0.5-1.7,0.9c-0.5,0.5-1.1,0.6-1.9,0.7L38,1.4c-0.4-0.1-3.7-1.3-5.2,0.4c-0.1,0.1-0.2,0.2-0.3,0.3
		c-2.8-0.4-5.6-0.6-8.5-0.6c-6.9,0-13.7,1.1-19.7,3.2L3.2,5.2l0,1.2c0,0.3,0,0.7,0,1v0C3,12,2.9,18.9,5.3,26.4
		c0,0.1,0.1,0.3,0.1,0.4c0.1,0.2,0.2,0.5,0.2,0.7H0.7l0.4,1c1.2,3.2,2.9,6.2,4.9,9l0.2,0.3h4.9c0.2,0.3,0.5,0.7,0.7,1
		c3.2,4,7.2,7.5,12.1,10.6L25,50l0.9-0.6c4.9-3,8.9-6.6,12.1-10.6c0.3-0.3,0.5-0.6,0.7-1h4.9l0.2-0.3c2-2.8,3.7-5.8,4.9-9l0.4-1
		L44.4,27.5L44.4,27.5z M47.2,30.6c-0.8,1.7-1.7,3.4-2.8,5c-0.3,0.5-0.7,1-1.1,1.6h-2.6h-2.3c-0.2,0.3-0.5,0.6-0.7,0.9
		c-0.1,0.1-0.1,0.2-0.2,0.3c-0.2,0.2-0.3,0.4-0.5,0.6c-3.1,3.7-6.9,7.1-11.5,9.9L25,49.1l-0.5-0.3c-4.6-2.9-8.5-6.2-11.5-9.9
		c-0.2-0.2-0.3-0.4-0.5-0.6c-0.1-0.1-0.1-0.2-0.2-0.3c-0.2-0.3-0.5-0.6-0.7-0.9H9.3H6.7c-2-2.7-3.6-5.7-4.8-8.9H4h2.7
		c-0.1-0.3-0.2-0.5-0.3-0.8l0,0c0,0,0-0.1,0-0.1l0,0c-0.1-0.3-0.2-0.6-0.3-0.9c0-0.1,0-0.1-0.1-0.2C3.6,18.9,3.8,12,3.9,7.5v0
		c0-0.3,0-0.7,0-1l0-0.7l0.7-0.2c6-2.1,12.7-3.2,19.5-3.2c3,0,5.9,0.2,8.7,0.6c0.2-0.2,0.4-0.4,0.6-0.6c1.2-1.4,4.4-0.2,4.4-0.2
		s-2.5-0.3-3.3,0.7c-0.1,0.1-0.2,0.2-0.3,0.3c0.9,0.1,1.7,0.3,2.5,0.5c0,0,0,0,0.1,0c1.6-1.4,3.4-0.5,4.9-1.9s4.1-0.8,4.1-0.8
		s-1.5-0.4-2.9,1.4C41.7,3.9,40.1,3,38.6,4c1.4,0.3,2.7,0.7,4,1.2c1.1-0.5,1.1-2.1,1.1-2.1s0.4,1.4-0.3,2.4c0.7,0.2,1.4,0.5,2.1,0.8
		l0.6,0.3l0,1c0.1,4.6,0.3,11.4-2.2,18.9c0,0.1,0,0.1-0.1,0.2c-0.1,0.3-0.2,0.6-0.3,0.9l0,0c-0.1,0.3-0.2,0.5-0.3,0.8h2.7l0,0h2.2
		l0,0C47.9,29,47.5,29.8,47.2,30.6z"/>
	<path class="st1" d="M25,45.8c3.2-2.1,6-4.4,8.3-6.9H31H19h-2.3C19,41.4,21.8,43.7,25,45.8z M27.3,41.9c-0.2,0.9-0.9,1.6-1.8,1.8
		c-0.2-0.2-0.3-0.5-0.3-0.7c0-0.7,0.5-1.3,1.4-1.5c0.3-0.1,0.5-0.2,0.7-0.4C27.4,41.3,27.4,41.6,27.3,41.9z M23.5,40.2
		c0.4-0.5,1-0.8,1.7-0.8c0.1,0,0.3,0,0.4,0c0.6,0.1,1.1,0.4,1.4,0.9c0.1,0.1,0.1,0.1,0.1,0.2c0,0.2-0.3,0.4-0.6,0.5
		c-1.4,0.4-1.7,1.3-1.7,1.9c0,0.3,0.1,0.5,0.2,0.8c-0.1,0-0.2,0-0.2,0c-0.3-0.1-0.6-0.2-0.9-0.4C24,43,24,42.8,24,42.5
		c0-0.4-0.1-0.8-0.3-1.1C23.6,41,23.4,40.6,23.5,40.2z M23,41.2c0-0.1,0.1-0.2,0.1-0.3c0.1,0.3,0.2,0.5,0.2,0.7
		c0.1,0.3,0.3,0.6,0.2,0.9c0,0.2,0,0.3-0.1,0.5C23.1,42.5,22.9,41.8,23,41.2z"/>
	<path class="st2" d="M33.4,38.9c-2.4,2.5-5.2,4.8-8.3,6.9c-3.2-2.1-6-4.4-8.3-6.9h-0.2h-0.8c2.6,2.9,5.8,5.5,9.4,7.8
		c3.6-2.3,6.8-4.9,9.4-7.8h-0.8H33.4z"/>
	<path class="st2" d="M44.1,7.9c-0.6-0.2-1.1-0.4-1.7-0.6c-0.1,0.2-0.2,0.4-0.2,0.7c0.4,0.1,0.8,0.3,1.1,0.4
		c0.1,4.4,0.1,10.6-2.1,17.3c-0.1,0.2-0.2,0.5-0.2,0.7c-0.1,0.2-0.1,0.4-0.2,0.6c0,0.1-0.1,0.2-0.1,0.2c0,0.1-0.1,0.2-0.1,0.3
		c0,0.1-0.1,0.2-0.1,0.3c-0.1,0.2-0.1,0.3-0.2,0.5h0.8l0,0c0.1-0.3,0.2-0.5,0.3-0.8c0-0.1,0.1-0.2,0.1-0.3c0-0.1,0.1-0.2,0.1-0.3
		c0.1-0.2,0.1-0.4,0.2-0.6c0.1-0.2,0.1-0.3,0.2-0.5C44.3,18.9,44.2,12.3,44.1,7.9z"/>
	<path class="st2" d="M42.2,7.2c-0.3-0.1-0.7-0.2-1-0.3c-0.3,0.2-0.6,0.4-0.8,0.6c0.4,0.1,0.9,0.3,1.3,0.4
		C41.9,7.5,42.1,7.3,42.2,7.2z"/>
	<path class="st2" d="M39.5,6.3c-1.1-0.3-2.2-0.6-3.3-0.8c-0.6,0.2-1.3,0.2-1.9,0.4c1.6,0.3,3.2,0.6,4.8,1.1
		C39.2,6.8,39.3,6.5,39.5,6.3z"/>
	<path class="st2" d="M32.4,4.9c-0.2,0-0.4-0.1-0.6-0.1c-0.3,0.1-0.6,0.1-1,0.1c-1,0.1-1.6,0.2-1.9,0.3c0.9,0.1,1.8,0.2,2.7,0.3
		C31.9,5.3,32.2,5.1,32.4,4.9z"/>
	<path class="st3" d="M25,46.7c-3.6-2.3-6.8-4.9-9.4-7.8h-2.7c3.1,3.7,6.9,7.1,11.5,9.9l0.5,0.3l0.5-0.3c4.6-2.9,8.5-6.2,11.5-9.9
		h-2.7C31.8,41.7,28.7,44.4,25,46.7z"/>
	<path class="st2" d="M19,38.9h12h2.3c0.5-0.6,1-1.1,1.5-1.7h-1.3H31H19h-2.6h-1.3c0.5,0.6,1,1.2,1.5,1.7H19z"/>
	<path class="st4" d="M34.4,38.9h2.7c0.2-0.2,0.3-0.4,0.5-0.6c0.1-0.1,0.1-0.2,0.2-0.3c0.2-0.3,0.5-0.6,0.7-0.9h-2.6
		C35.4,37.7,34.9,38.3,34.4,38.9z"/>
	<path class="st4" d="M14.2,37.1h-2.6c0.2,0.3,0.5,0.6,0.7,0.9c0.1,0.1,0.1,0.2,0.2,0.3c0.2,0.2,0.3,0.4,0.5,0.6h2.7
		C15.1,38.3,14.6,37.7,14.2,37.1z"/>
	<path class="st5" d="M16.4,38.9h0.2c-0.5-0.6-1-1.1-1.5-1.7h-1c0.5,0.6,1,1.2,1.5,1.7H16.4z"/>
	<path class="st2" d="M9.6,27.8c-0.1-0.2-0.1-0.3-0.2-0.5c0-0.1-0.1-0.1-0.1-0.2c-0.1-0.2-0.2-0.5-0.3-0.7c-0.1-0.2-0.2-0.5-0.2-0.7
		c-2.3-7-2.2-13.5-2.1-17.9C12,6,18,5.1,24.1,5.1c1,0,1.9,0,2.9,0.1C27,5.1,27.1,5,27.2,5c0.2-0.2,0.4-0.4,0.6-0.5
		c-1.2-0.1-2.4-0.1-3.7-0.1c-6.3,0-12.6,1-18.1,2.9c0,0.1,0,0.2,0,0.3v0C5.8,12,5.7,18.7,8.1,25.9c0.1,0.2,0.1,0.3,0.2,0.5
		c0.1,0.2,0.1,0.4,0.2,0.6c0,0.1,0.1,0.2,0.1,0.3c0,0.1,0.1,0.2,0.1,0.3c0.1,0.3,0.2,0.5,0.3,0.8l0,0h0.8c0-0.1-0.1-0.1-0.1-0.2
		C9.7,28,9.6,27.9,9.6,27.8z"/>
	<path class="st5" d="M33.6,38.9h0.8c0.5-0.6,1-1.1,1.5-1.7h-1c-0.5,0.6-1,1.2-1.5,1.7H33.6z"/>
	<polygon class="st3" points="32,33.1 32,31.4 31.4,33.1 	"/>
	<polygon class="st3" points="34.6,31.4 34.4,32.4 35.1,32.4 35.2,32.4 35.3,31.5 35.3,31.4 	"/>
	<polygon class="st3" points="39.8,33.1 39.8,31.4 39.2,33.1 	"/>
	<polygon class="st3" points="16.2,31.5 16.1,31.6 15.7,33.8 15.8,33.9 16.4,33.9 16.5,33.8 16.9,31.6 16.8,31.5 	"/>
	<path class="st3" d="M46,28.3L46,28.3h-2.7c0.1-0.3,0.2-0.5,0.3-0.8c0.1-0.3,0.2-0.6,0.3-0.9c0-0.1,0-0.1,0.1-0.2
		c2.4-7.5,2.3-14.3,2.2-18.9l0-1l-0.6-0.3c-0.7-0.3-1.4-0.5-2.1-0.8c0.6-1,0.3-2.4,0.3-2.4s0.1,1.6-1.1,2.1c-1.3-0.4-2.6-0.8-4-1.2
		c1.5-1,3.1-0.1,4.3-1.7c1.3-1.8,2.9-1.4,2.9-1.4s-2.6-0.7-4.1,0.8c-1.5,1.4-3.2,0.5-4.9,1.9c0,0,0,0-0.1,0
		c-0.8-0.2-1.7-0.3-2.5-0.5c0.1-0.1,0.2-0.2,0.3-0.3c0.8-1,3.3-0.7,3.3-0.7s-3.1-1.2-4.4,0.2c-0.2,0.2-0.4,0.4-0.6,0.6
		C30,2.5,27,2.3,24.1,2.3c-6.8,0-13.6,1.1-19.5,3.2L3.9,5.7l0,0.7c0,0.3,0,0.7,0,1v0C3.8,12,3.6,18.9,6.1,26.4c0,0.1,0,0.1,0.1,0.2
		c0.1,0.3,0.2,0.6,0.3,0.9l0,0c0,0,0,0.1,0,0.1c0.1,0.3,0.2,0.5,0.3,0.8H4.1H1.9c1.2,3.2,2.8,6.1,4.8,8.9h2.6h2.3h2.6h1h1.3H19h12
		h2.6h1.3h1h2.6h2.3h2.6c0.4-0.5,0.7-1,1.1-1.6c1-1.6,2-3.2,2.8-5c0.4-0.8,0.7-1.5,1-2.3l0,0L46,28.3L46,28.3z M40.4,7.4
		c0.2-0.2,0.4-0.4,0.8-0.6c0.3,0.1,0.7,0.2,1,0.3c-0.2,0.2-0.3,0.4-0.5,0.6c-0.2,0.3-0.4,0.7-0.7,1.1c-1,2-2.1,1-3.5,3.8
		s-4.6,2-5.6,4.3c-1,2.3-4.1,1.7-5.5,4.5c-1.4,2.8-3.1,5.3-5.6,5.4c-2.4,0.1-3.3-1-3.1-3.4c0-0.4,0.1-0.8,0.2-1.2
		c5.3,1.6,8.6-1.4,9.3-2.3c0.8-1.1,1.7-1.6,2.8-1.8c1.2-0.2,1.4-1.4,2-2.3c0.6-0.8,2.4-0.8,2.9-2.1c0.5-1.2,1-2,2.5-2.6
		c1.7-0.7,2.4-1.9,2.5-2.8C40,8,40.1,7.7,40.4,7.4z M34.3,6c0.6-0.2,1.3-0.3,1.9-0.4c1.1,0.2,2.2,0.5,3.3,0.8
		c-0.2,0.2-0.3,0.4-0.4,0.7C39,7.1,39,7.2,39,7.4c-0.2,1.2-0.7,2-2.5,2.7c-1.7,0.6-2.2,1.5-2.6,2.7c-0.4,1.3-2.7,0.8-3.3,2.1
		s-1.5,0.6-2.6,1.8c-1,1.1-4.9,2.6-9,1.9c0.5-1.2,1-2.4,1.5-3.1c1.7-2.5,4.4-1.9,5.6-4c2-3.3,5.1-1.1,6.3-3.9
		C32.8,6.6,33.5,6.2,34.3,6z M28.9,5.3c0.4-0.2,0.9-0.3,1.9-0.3c0.4,0,0.7-0.1,1-0.1c0.2,0,0.4,0.1,0.6,0.1
		c-0.3,0.2-0.5,0.4-0.8,0.7c-0.3,0.3-0.5,0.6-0.8,1c-2.1,2.8-4.7,0.3-7.2,3.7c-2.2,3-5.1,0.1-7.9,7.3c-1.8-1.1-1.8-2.8-0.7-4.2
		c2-2.7,5-1.4,7.2-3.4c0.5-0.5,1.5-1.9,2.8-2c2.1-0.2,2.3-1,2.9-1.7C28.3,5.8,28.5,5.5,28.9,5.3z M10.9,31.5h-0.5l-0.1,0.1l-0.1,0.6
		l0,0l1,0.2l0.4,0.4l-0.2,1.3L11,34.6H9.5L9,34.1l0.1-0.7H10l-0.1,0.4l0.1,0.1h0.5l0.1-0.1l0.1-0.6l0,0l-1-0.2l-0.4-0.4l0.2-1.2
		l0.5-0.5h1.5l0.5,0.5L11.8,32h-0.9L10.9,31.5L10.9,31.5z M13.8,34.6h-1.5l-0.5-0.5l0.6-3.3h0.9l-0.5,3l0.1,0.1h0.5l0.1-0.1l0.5-3
		h0.9l-0.6,3.3L13.8,34.6z M16.8,34.6h-1.5l-0.5-0.5l0.5-2.8l0.5-0.5h1.5l0.5,0.5l-0.5,2.8L16.8,34.6z M20.5,34.6l0.6-3.2L20,34.6
		h-1l0.1-3.2l-0.6,3.2h-0.7l0.7-3.8h1.4l-0.1,3l1-3H22l-0.7,3.8H20.5z M24.1,33h-1.1l-0.2,0.9h1.2L24,34.6h-2.1l0.7-3.8h2.1
		l-0.1,0.7h-1.2l-0.1,0.8h1.1L24.1,33z M26.2,34.6l-0.5-2.3l-0.4,2.3h-0.8l0.7-3.8H26l0.5,2.2l0.4-2.2h0.8L27,34.6H26.2z M29.5,34.6
		H28l-0.5-0.5l0.1-0.7h0.9l-0.1,0.4l0.1,0.1H29l0.1-0.1l0.1-0.6l0,0l-1-0.2l-0.4-0.4l0.2-1.2l0.5-0.5h1.5l0.5,0.5L30.3,32h-0.9
		l0.1-0.4l-0.1-0.1h-0.5l-0.1,0.1l-0.1,0.6l0,0l1,0.2l0.4,0.4L30,34.1L29.5,34.6z M32,34.6l0-0.8h-0.8l-0.3,0.8h-0.9l1.4-3.8h1.3
		l0.1,3.8H32z M35.9,34.6H35l-0.3-1.5h-0.4l-0.3,1.5h-0.9l0.7-3.8h1.9l0.5,0.5l-0.2,1.2L35.6,33l0.2,0.9H36L35.9,34.6z M37.2,34.6
		H36l0.1-0.7h0.6l0.1-0.1l0.5-3h0.9l-0.6,3.3L37.2,34.6z M39.8,34.6l0-0.8H39l-0.3,0.8h-0.9l1.4-3.8h1.3l0.1,3.8H39.8z M41.8,26.4
		c-0.1,0.2-0.1,0.4-0.2,0.6c0,0.1-0.1,0.2-0.1,0.3c0,0.1-0.1,0.2-0.1,0.3c-0.1,0.3-0.2,0.5-0.3,0.8l0,0h-0.8h-1.8l0,0h-2.2l0,0h-11
		H13.8h-0.7h-1.5H9.8l0,0H8.9l0,0c-0.1-0.3-0.2-0.5-0.3-0.8c0-0.1-0.1-0.2-0.1-0.3c0-0.1-0.1-0.2-0.1-0.3c-0.1-0.2-0.1-0.4-0.2-0.6
		c-0.1-0.2-0.1-0.3-0.2-0.5C5.7,18.7,5.8,12,5.9,7.5v0c0-0.1,0-0.2,0-0.3c5.5-1.9,11.8-2.9,18.1-2.9c1.2,0,2.4,0,3.7,0.1
		c-0.2,0.2-0.4,0.4-0.6,0.5C27.1,5,27,5.1,27,5.1c-0.4,0.5-0.8,1.3-2.2,1.5c-1.6,0.3-2.4,1.2-3.3,2.6c-0.9,1.3-3.4,0.7-5.5,2.6
		c-0.9,0.8-2.1,2.2-2.6,3.7c-0.3,0.8-1.3,3.4,1.2,5.2c-0.7,3.2,0.4,4.5,1.5,5.5c1.2,1.1,4.8,2.4,8.3-0.4c3.6-2.7,3.1-4.7,5.5-5.5
		c3.5-1.2,2.8-4.2,5.2-4.8c2.7-0.7,3-1.6,3.7-3.3c0.6-1.6,3.1-1.7,3.3-3.9c0-0.2,0-0.3,0.1-0.5c0.1-0.3,0.1-0.6,0.2-0.7
		c0.6,0.2,1.1,0.4,1.7,0.6c0.1,4.4,0.2,11-2.1,18.1C41.9,26.1,41.9,26.2,41.8,26.4z"/>
	<polygon class="st1" points="11.8,32 12,31.3 11.5,30.8 10,30.8 9.5,31.3 9.3,32.5 9.7,32.9 10.7,33.1 10.7,33.2 10.6,33.8 
		10.6,33.9 10,33.9 10,33.8 10,33.4 9.2,33.4 9,34.1 9.5,34.6 11,34.6 11.5,34.1 11.7,32.8 11.3,32.4 10.3,32.2 10.3,32.2 
		10.4,31.6 10.4,31.5 10.9,31.5 11,31.6 10.9,32 	"/>
	<polygon class="st1" points="14,30.8 13.5,33.8 13.4,33.9 12.9,33.9 12.8,33.8 13.3,30.8 12.4,30.8 11.9,34.1 12.4,34.6 13.8,34.6 
		14.3,34.1 14.9,30.8 	"/>
	<path class="st1" d="M17.3,30.8h-1.5l-0.5,0.5l-0.5,2.8l0.5,0.5h1.5l0.5-0.5l0.5-2.8L17.3,30.8z M16.5,33.8L16.5,33.8l-0.6,0.1
		l-0.1-0.1l0.4-2.2l0.1-0.1h0.6l0.1,0.1L16.5,33.8z"/>
	<polygon class="st1" points="20.6,30.8 19.7,33.8 19.8,30.8 18.4,30.8 17.7,34.6 18.5,34.6 19,31.4 19,34.6 20,34.6 21.1,31.4 
		20.5,34.6 21.4,34.6 22,30.8 	"/>
	<polygon class="st1" points="23.3,31.5 24.5,31.5 24.7,30.8 22.6,30.8 21.9,34.6 24,34.6 24.1,33.9 22.9,33.9 23.1,33 24.1,33 
		24.3,32.3 23.2,32.3 	"/>
	<polygon class="st1" points="26.9,30.8 26.5,33 26,30.8 25.1,30.8 24.4,34.6 25.2,34.6 25.6,32.3 26.2,34.6 27,34.6 27.7,30.8 	"/>
	<polygon class="st1" points="29.8,32.4 28.8,32.2 28.7,32.2 28.9,31.6 28.9,31.5 29.4,31.5 29.5,31.6 29.4,32 30.3,32 30.5,31.3 
		30,30.8 28.5,30.8 28,31.3 27.8,32.5 28.2,32.9 29.2,33.1 29.2,33.2 29.1,33.8 29,33.9 28.5,33.9 28.5,33.8 28.5,33.4 27.6,33.4 
		27.5,34.1 28,34.6 29.5,34.6 30,34.1 30.2,32.8 	"/>
	<path class="st1" d="M31.5,30.8l-1.4,3.8h0.9l0.3-0.8H32l0,0.8h0.9l-0.1-3.8L31.5,30.8L31.5,30.8z M32,33.1h-0.6l0.6-1.8L32,33.1z"
		/>
	<path class="st1" d="M35.7,33.9L35.6,33l0.5-0.5l0.2-1.2l-0.5-0.5h-1.9l-0.7,3.8h0.9l0.3-1.5h0.4l0.3,1.5h0.9l0.1-0.7H35.7z
		 M35.2,32.4L35.2,32.4l-0.7,0.1l0.2-1h0.6l0.1,0.1L35.2,32.4z"/>
	<polygon class="st1" points="37.4,30.8 36.8,33.8 36.8,33.9 36.1,33.9 36,34.6 37.2,34.6 37.7,34.1 38.3,30.8 	"/>
	<path class="st1" d="M39.3,30.8l-1.4,3.8h0.9l0.3-0.8h0.8l0,0.8h0.9l-0.1-3.8H39.3z M39.8,33.1h-0.6l0.6-1.8L39.8,33.1z"/>
	<path class="st3" d="M23.6,42.5c0-0.3-0.1-0.6-0.2-0.9c-0.1-0.2-0.2-0.4-0.2-0.7c0,0.1-0.1,0.2-0.1,0.3c-0.1,0.7,0.1,1.3,0.5,1.8
		C23.6,42.8,23.6,42.6,23.6,42.5z"/>
	<path class="st3" d="M24,42.5c0,0.3-0.1,0.6-0.2,0.8c0.3,0.2,0.6,0.3,0.9,0.4c0.1,0,0.2,0,0.2,0c-0.1-0.2-0.2-0.5-0.2-0.8
		c0-0.7,0.3-1.5,1.7-1.9c0.3-0.1,0.6-0.3,0.6-0.5c0-0.1-0.1-0.1-0.1-0.2c-0.3-0.5-0.8-0.8-1.4-0.9c-0.1,0-0.3,0-0.4,0
		c-0.7,0-1.3,0.3-1.7,0.8c0,0.5,0.1,0.8,0.3,1.2C23.9,41.7,24.1,42.1,24,42.5z"/>
	<path class="st3" d="M25.2,43c0,0.3,0.1,0.6,0.3,0.7c0.9-0.1,1.6-0.9,1.8-1.8c0.1-0.3,0.1-0.6,0-0.9c-0.2,0.2-0.4,0.3-0.7,0.4
		C25.7,41.7,25.2,42.2,25.2,43z"/>
</g>
</svg>
