<?xml version="1.0" encoding="utf-8"?>
<!-- Generator: Adobe Illustrator 28.0.0, SVG Export Plug-In . SVG Version: 6.00 Build 0)  -->
<svg version="1.1"
	 id="svg2" xmlns:rdf="http://www.w3.org/1999/02/22-rdf-syntax-ns#" xmlns:svg="http://www.w3.org/2000/svg" xmlns:inkscape="http://www.inkscape.org/namespaces/inkscape" xmlns:cc="http://creativecommons.org/ns#" xmlns:sodipodi="http://sodipodi.sourceforge.net/DTD/sodipodi-0.dtd" xmlns:dc="http://purl.org/dc/elements/1.1/" inkscape:version="0.48.5 r10040" sodipodi:docname="SP_4v.pdf"
	 xmlns="http://www.w3.org/2000/svg" xmlns:xlink="http://www.w3.org/1999/xlink" x="0px" y="0px" viewBox="0 0 50 50"
	 style="enable-background:new 0 0 50 50;" xml:space="preserve">
<style type="text/css">
	.st0{fill:url(#path30_00000041278235463802864570000002952312097492567188_);}
	.st1{fill:url(#path50_00000017496748662782196590000015482226493165236663_);}
	.st2{fill:url(#path70_00000074410712612382917910000007360796204249711777_);}
	.st3{fill:url(#path90_00000103951484647648518900000004133324369020332710_);}
	.st4{fill:url(#path110_00000131351551545161837940000001978737827619795613_);}
	.st5{fill:url(#path130_00000020365398119328793400000014223640445344377235_);}
	.st6{fill:#FFFFFF;}
</style>
<sodipodi:namedview  bordercolor="#666666" borderopacity="1" gridtolerance="10" guidetolerance="10" id="namedview4" inkscape:current-layer="g10" inkscape:cx="341.64358" inkscape:cy="118.46937" inkscape:pageopacity="0" inkscape:pageshadow="2" inkscape:window-height="1137" inkscape:window-maximized="1" inkscape:window-width="1920" inkscape:window-x="-4" inkscape:window-y="-4" inkscape:zoom="2.0052924" objecttolerance="10" pagecolor="#ffffff" showgrid="false">
	</sodipodi:namedview>
<g id="g10" transform="matrix(1.25,0,0,-1.25,0,294.19)" inkscape:groupmode="layer" inkscape:label="SP_4v">
	<g id="g12">
		<g id="g14">
			<g id="g20">
				<g id="g22">
					
						<linearGradient id="path30_00000127037669281171400650000001193685921025664925_" gradientUnits="userSpaceOnUse" x1="-609.7775" y1="-261.9811" x2="-609.6537" y2="-261.9811" gradientTransform="matrix(-81.5352 -147.1102 147.1102 -81.5352 -11152.2676 -110836.7734)">
						<stop  offset="0" style="stop-color:#F37318"/>
						<stop  offset="1" style="stop-color:#C01A2D"/>
					</linearGradient>
					<path id="path30" style="fill:url(#path30_00000127037669281171400650000001193685921025664925_);" d="M21.1,226.8
						c-0.2-0.3-0.3-0.7-0.3-1l0,0l-3-13.7l0,0l10,12.5c0.2,0.2,0.2,0.4,0.3,0.6l0,0c0.9,1.9,0,3.8-1.9,4.3l0,0
						c-0.3,0.1-0.6,0.1-0.8,0.1l0,0C23.6,229.6,21.9,228.5,21.1,226.8"/>
				</g>
			</g>
		</g>
	</g>
	<g id="g32">
		<g id="g34">
			<g id="g40">
				<g id="g42">
					
						<linearGradient id="path50_00000181049808795900419420000012776583981605364132_" gradientUnits="userSpaceOnUse" x1="-611.0217" y1="-262.3105" x2="-610.8978" y2="-262.3105" gradientTransform="matrix(-139.7678 -113.8851 113.8851 -139.7678 -55494.4414 -106025.25)">
						<stop  offset="0" style="stop-color:#F9B019"/>
						<stop  offset="1" style="stop-color:#F68712"/>
					</linearGradient>
					<path id="path50" style="fill:url(#path50_00000181049808795900419420000012776583981605364132_);" d="M29.4,224.9
						c-0.3-0.3-0.6-0.6-0.8-0.9l0,0l-10-12.6l14.9,7.6c0.3,0.2,0.4,0.3,0.6,0.5l0,0c1.8,1.5,2.1,3.9,0.8,5.4l0,0
						c-0.6,0.7-1.6,1.1-2.6,1.1l0,0C31.4,226,30.3,225.6,29.4,224.9"/>
				</g>
			</g>
		</g>
	</g>
	<g id="g52">
		<g id="g54">
			<g id="g60">
				<g id="g62">
					
						<linearGradient id="path70_00000026142902666142502890000011733114751172699536_" gradientUnits="userSpaceOnUse" x1="-612.0192" y1="-263.0555" x2="-611.8953" y2="-263.0555" gradientTransform="matrix(-187.3598 -57.4146 57.4146 -187.3598 -99527.1797 -84209.5234)">
						<stop  offset="0" style="stop-color:#5AC035"/>
						<stop  offset="1" style="stop-color:#27963C"/>
					</linearGradient>
					<path id="path70" style="fill:url(#path70_00000026142902666142502890000011733114751172699536_);" d="M34.4,218.4
						c-0.4-0.1-0.7-0.3-1.1-0.5l0,0l-14.1-7.2l15.3,0c0.3,0,0.5,0.1,0.7,0.1l0,0c2.1,0.6,3.7,2.7,3.4,4.8l0,0
						c-0.2,1.7-1.5,2.9-3.2,2.9l0,0C35.1,218.5,34.8,218.5,34.4,218.4"/>
				</g>
			</g>
		</g>
	</g>
	<g id="g72">
		<g id="g74">
			<g id="g80">
				<g id="g82">
					
						<linearGradient id="path90_00000176034917452022842750000014198111647326960277_" gradientUnits="userSpaceOnUse" x1="-604.9003" y1="-266.3843" x2="-604.7765" y2="-266.3843" gradientTransform="matrix(100.539 -42.2877 42.2877 100.539 72085.4922 1415.8988)">
						<stop  offset="0" style="stop-color:#4297D9"/>
						<stop  offset="1" style="stop-color:#2C3792"/>
					</linearGradient>
					<path id="path90" style="fill:url(#path90_00000176034917452022842750000014198111647326960277_);" d="M2.5,214.4
						c-0.8-1.5-0.4-3.2,1-3.6l0,0c0.2,0,0.3-0.1,0.5-0.1l0,0l11.4,0L7.1,216c-0.2,0.1-0.4,0.3-0.7,0.3l0,0c-0.2,0.1-0.5,0.1-0.7,0.1
						l0,0C4.5,216.5,3.1,215.7,2.5,214.4"/>
				</g>
			</g>
		</g>
	</g>
	<g id="g92">
		<g id="g94">
			<g id="g100">
				<g id="g102">
					
						<linearGradient id="path110_00000079478117727454166420000003629916466096427661_" gradientUnits="userSpaceOnUse" x1="-608.2993" y1="-262.8379" x2="-608.1755" y2="-262.8379" gradientTransform="matrix(9.0599 -183.7835 183.7835 9.0599 53832.2422 -109184.5156)">
						<stop  offset="0" style="stop-color:#E1293B"/>
						<stop  offset="1" style="stop-color:#C01A2D"/>
					</linearGradient>
					<path id="path110" style="fill:url(#path110_00000079478117727454166420000003629916466096427661_);" d="M16,228.2
						c-2-0.4-3.5-2.2-3.5-4l0,0c0-0.2,0-0.4,0.1-0.6l0,0l4.3-11.6l2.6,12.7c0.1,0.3,0.1,0.6,0.1,1l0,0c0,1.5-1.3,2.6-2.9,2.6l0,0
						C16.5,228.3,16.3,228.2,16,228.2"/>
				</g>
			</g>
		</g>
	</g>
	<g id="g112">
		<g id="g114">
			<g id="g120">
				<g id="g122">
					
						<linearGradient id="path130_00000000204419645898532880000001499979878580002970_" gradientUnits="userSpaceOnUse" x1="-605.2516" y1="-269.152" x2="-605.1278" y2="-269.152" gradientTransform="matrix(97.7072 0 0 97.7072 59143.9062 26515.082)">
						<stop  offset="0" style="stop-color:#7D2781"/>
						<stop  offset="1" style="stop-color:#2C3892"/>
					</linearGradient>
					<path id="path130" style="fill:url(#path130_00000000204419645898532880000001499979878580002970_);" d="M10.3,222.6
						c-0.8,0-1.6-0.3-2.3-0.8l0,0c-1.5-1.1-2-3-1.1-4.1l0,0c0.1-0.1,0.2-0.2,0.3-0.4l0,0l8.9-5.9l-3.6,9.6c-0.1,0.2-0.2,0.5-0.3,0.7
						l0,0C11.8,222.3,11.1,222.6,10.3,222.6L10.3,222.6C10.3,222.6,10.3,222.6,10.3,222.6"/>
				</g>
			</g>
		</g>
	</g>
	<g id="g132">
		<g id="g134">
			<g id="g140">
				<g id="g142">
					<path id="path150" class="st6" d="M0.9,206.8c-0.3-1.2-0.1-1.4,1.1-1.7l0,0c0.8-0.2,0.8-0.2,0.7-0.7l0,0
						c-0.1-0.5-0.3-0.6-0.9-0.6l0,0c-0.6,0-1.2,0.2-1.6,0.3l0,0l-0.2-1c0.4-0.2,1-0.3,1.6-0.3l0,0c1.6,0,2.1,0.5,2.3,1.6l0,0
						c0.2,1.1,0.2,1.3-1.1,1.7l0,0c-0.8,0.2-0.8,0.2-0.7,0.7l0,0c0.1,0.4,0.2,0.5,0.8,0.5l0,0c0.5,0,1,0,1.6-0.2l0,0l0.2,1
						c-0.6,0.1-1.1,0.2-1.6,0.2l0,0C1.6,208.3,1.1,207.9,0.9,206.8"/>
				</g>
			</g>
		</g>
	</g>
	<g id="g152">
		<g id="g154">
			<g id="g160">
				<g id="g162">
					<path id="path170" class="st6" d="M36.2,206.7c-0.3-1.2-0.1-1.4,1.1-1.7l0,0c0.8-0.2,0.8-0.2,0.7-0.7l0,0
						c-0.1-0.5-0.3-0.6-0.9-0.6l0,0c-0.6,0-1.2,0.2-1.6,0.3l0,0l-0.2-1c0.4-0.2,1-0.3,1.6-0.3l0,0c1.6,0,2.1,0.5,2.3,1.6l0,0
						c0.2,1.1,0.2,1.3-1.1,1.7l0,0c-0.8,0.2-0.8,0.2-0.7,0.7l0,0c0.1,0.4,0.2,0.5,0.8,0.5l0,0c0.5,0,1,0,1.6-0.2l0,0l0.2,1
						c-0.6,0.1-1.1,0.2-1.6,0.2l0,0C36.9,208.3,36.5,207.8,36.2,206.7"/>
				</g>
			</g>
		</g>
	</g>
	<g id="g172">
		<g id="g174">
			<g id="g180">
				<g id="g182">
					<path id="path190" class="st6" d="M8,208.2l-0.8-3.7c-0.1-0.4-0.4-0.7-1-0.7l0,0c-0.6,0-0.8,0.3-0.7,0.7l0,0l0.8,3.7H5.1
						l-0.9-3.8c-0.2-0.8,0.1-1.6,1.7-1.6l0,0c1.5,0,2.2,0.8,2.4,1.6l0,0l0.9,3.8l0,0C9.2,208.2,8,208.2,8,208.2z"/>
				</g>
			</g>
		</g>
	</g>
	<g id="g192">
		<g id="g194">
			<g id="g200">
				<g id="g202">
					<path id="path210" class="st6" d="M9.5,208.2l-1.2-5.4h1.2l0.4,1.6h0.9c1.3,0,2,0.5,2.2,1.5l0,0l0.2,0.7c0.2,1-0.1,1.5-1.4,1.5
						l0,0C11.7,208.2,9.5,208.2,9.5,208.2z M10.5,207.1h0.9c0.5,0,0.6-0.2,0.5-0.6l0,0l-0.1-0.5c-0.1-0.4-0.2-0.6-0.8-0.6l0,0h-0.9
						C10.1,205.5,10.5,207.1,10.5,207.1z"/>
				</g>
			</g>
		</g>
	</g>
	<g id="g212">
		<g id="g214">
			<g id="g220">
				<g id="g222">
					<path id="path230" class="st6" d="M13.9,208.2l-1.2-5.4h3.4l0.2,1.1h-2.2l0.3,1.2h2l0.2,1.1h-2l0.2,1h2.2l0.2,1.1l0,0H13.9
						L13.9,208.2z"/>
				</g>
			</g>
		</g>
	</g>
	<g id="g232">
		<g id="g234">
			<g id="g240">
				<g id="g242">
					<path id="path250" class="st6" d="M17.7,208.2l-1.2-5.4h1.2l0.4,1.7h0.7l0.8-1.7h1.4l-0.9,1.8c0.6,0.2,0.9,0.7,1.1,1.3l0,0
						l0.1,0.7c0.2,1-0.1,1.5-1.4,1.5l0,0C20,208.2,17.7,208.2,17.7,208.2z M18.7,207.1h1c0.5,0,0.6-0.2,0.5-0.6l0,0l-0.1-0.4
						c-0.1-0.4-0.3-0.6-0.8-0.6l0,0h-1L18.7,207.1z"/>
				</g>
			</g>
		</g>
	</g>
	<g id="g252">
		<g id="g254">
			<g id="g260">
				<g id="g262">
					<path id="path270" class="st6" d="M22.5,208.2l-1.2-5.4h1.2l0.4,1.6h0.9c1.3,0,2,0.5,2.2,1.5l0,0l0.2,0.7
						c0.2,1-0.1,1.5-1.4,1.5l0,0C24.6,208.2,22.5,208.2,22.5,208.2z M23.4,207.1h0.9c0.5,0,0.6-0.2,0.5-0.6l0,0l-0.1-0.5
						c-0.1-0.4-0.2-0.6-0.8-0.6l0,0h-0.9C23.1,205.5,23.4,207.1,23.4,207.1z"/>
				</g>
			</g>
		</g>
	</g>
	<g id="g272">
		<g id="g274">
			<g id="g280">
				<g id="g282">
					<path id="path290" class="st6" d="M26.8,208.2l-1.2-5.4H29l0.2,1.1h-2.2l0.3,1.2h2l0.2,1.1h-2l0.2,1H30l0.2,1.1l0,0H26.8z"/>
				</g>
			</g>
		</g>
	</g>
	<g id="g292">
		<g id="g294">
			<g id="g300">
				<g id="g302">
					<path id="path310" class="st6" d="M30.3,206.7c-0.3-1.2-0.1-1.4,1.1-1.7l0,0c0.8-0.2,0.8-0.2,0.7-0.7l0,0
						c-0.1-0.5-0.3-0.6-0.9-0.6l0,0c-0.6,0-1.2,0.2-1.6,0.3l0,0l-0.2-1c0.4-0.2,1-0.3,1.6-0.3l0,0c1.6,0,2.1,0.5,2.3,1.6l0,0
						c0.2,1.1,0.2,1.3-1.1,1.7l0,0c-0.8,0.2-0.8,0.2-0.7,0.7l0,0c0.1,0.4,0.2,0.5,0.8,0.5l0,0c0.5,0,1,0,1.6-0.2l0,0l0.2,1
						c-0.6,0.1-1.1,0.2-1.6,0.2l0,0C31,208.3,30.5,207.8,30.3,206.7"/>
				</g>
			</g>
		</g>
	</g>
	<g id="g312">
		<g id="g314">
			<g id="g320">
				<g id="g322">
					<path id="path330" class="st6" d="M34.8,208.2l-1.2-5.4h1.2l1.2,5.4l0,0H34.8L34.8,208.2z"/>
				</g>
			</g>
		</g>
	</g>
</g>
</svg>
