<?xml version="1.0" encoding="utf-8"?>
<!-- Generator: Adobe Illustrator 28.0.0, SVG Export Plug-In . SVG Version: 6.00 Build 0)  -->
<svg version="1.1" id="Layer_1" xmlns="http://www.w3.org/2000/svg" xmlns:xlink="http://www.w3.org/1999/xlink" x="0px" y="0px"
	 viewBox="0 0 50 50" style="enable-background:new 0 0 50 50;" xml:space="preserve">
<style type="text/css">
	.st0{fill:none;}
	.st1{fill:#F1F2F2;}
	.st2{fill:#BCBEC0;}
	.st3{fill:#BF222C;}
	.st4{fill:#9E1921;}
	.st5{fill:#808285;}
</style>
<g>
	<path class="st0" d="M44.1,26.8c0.1-0.2,0.1-0.3,0.2-0.5C44.3,26.5,44.2,26.6,44.1,26.8L44.1,26.8z"/>
	<path class="st0" d="M5.9,26.8L5.9,26.8C5.9,26.8,5.9,26.7,5.9,26.8C5.9,26.7,5.9,26.8,5.9,26.8z"/>
	<path class="st1" d="M45.2,26.1c0.1-0.1,0.1-0.3,0.1-0.4c2.5-7.7,2.3-14.8,2.2-19.5l0-1.6l-1.1-0.5C39.7,1.4,32,0,24,0
		C16.9,0,9.9,1.2,3.7,3.3L2.5,3.8l0,1.3c0,0.3,0,0.7,0,1v0c-0.1,4.7-0.3,11.8,2.2,19.5c0,0.1,0.1,0.3,0.1,0.4
		C4.9,26.3,5,26.5,5,26.8H0l0.4,1.1c1.3,3.3,3,6.4,5.1,9.3l0.2,0.3h5c0.3,0.3,0.5,0.7,0.8,1c3.3,4.1,7.5,7.8,12.5,10.9l1,0.6l1-0.6
		c5-3.1,9.2-6.8,12.5-10.9c0.3-0.3,0.5-0.7,0.8-1h5l0.2-0.3c2.1-2.9,3.8-6,5.1-9.3l0.4-1.1h-5C45.1,26.6,45.2,26.3,45.2,26.1z
		 M46.6,27.6h2.3c-0.3,0.8-0.7,1.6-1,2.4c-0.8,1.8-1.8,3.5-2.9,5.1c-0.4,0.5-0.7,1.1-1.1,1.6h-2.7h-2.4c-0.2,0.3-0.5,0.6-0.7,1
		c-0.1,0.1-0.1,0.2-0.2,0.3c-0.2,0.2-0.3,0.4-0.5,0.6c-3.2,3.9-7.2,7.3-11.9,10.2L25,49.1l-0.6-0.3c-4.8-2.9-8.7-6.4-11.9-10.2
		c-0.2-0.2-0.3-0.4-0.5-0.6c-0.1-0.1-0.1-0.2-0.2-0.3c-0.2-0.3-0.5-0.6-0.7-0.9H8.8H6.1c-2.1-2.8-3.7-5.9-5-9.1h2.3h2.7
		c-0.1-0.3-0.2-0.5-0.3-0.8l0,0c0,0,0-0.1,0-0.1l0,0c-0.1-0.3-0.2-0.6-0.3-0.9c0-0.1,0-0.1-0.1-0.2C2.9,18,3.1,10.9,3.2,6.2v0
		c0-0.4,0-0.7,0-1.1l0-0.7l0.7-0.2C10.1,1.9,17,0.8,24,0.8c7.9,0,15.5,1.4,22.1,4.1l0.6,0.3l0,1c0.1,4.7,0.3,11.8-2.2,19.5
		c0,0.1,0,0.1-0.1,0.2c-0.1,0.2-0.1,0.3-0.2,0.5s-0.1,0.3-0.2,0.5l0,0c-0.1,0.3-0.2,0.5-0.3,0.8H46.6z"/>
	<path class="st1" d="M25.5,14.1c-0.1-0.1-0.2-0.1-0.3-0.1c-0.4-0.2-0.8-0.4-1.2-0.5c-0.4-0.2-0.8-0.3-1.2-0.5
		c-0.1,0-0.2-0.1-0.3-0.1c-0.1,0-0.1,0-0.2,0c-0.1,0-0.1,0-0.2,0c-0.1,0-0.2,0-0.3-0.1l0,0h0l-0.1,0l-0.1,0h0h0c-0.1,0-0.1,0-0.2,0
		c0,0-0.1,0-0.1,0h-0.1h-0.1c0,0-0.1,0-0.1,0c-0.1,0-0.1,0-0.2,0c-0.1,0-0.2,0-0.3,0l-0.1,0c0,0-0.1,0-0.1,0l-0.1,0c0,0-0.1,0-0.1,0
		c-0.2,0.1-0.4,0.1-0.6,0.2c-0.1,0-0.1,0.1-0.1,0.1c0,0,0,0-0.1,0l-0.1,0l-0.1,0c0,0,0,0-0.1,0c0,0-0.1,0.1-0.1,0.1
		c0.1,0,0.1,0,0.1-0.1c0,0,0.1,0,0.1,0l0.1,0l0.1,0c0,0,0.1,0,0.1,0c0.1,0,0.1,0,0.1,0c0,0,0.1,0,0.1,0l0.1,0l0.1,0l0.1,0l0.1,0
		c0,0,0.1,0,0.1,0l0.1,0c0.1,0,0.1,0,0.1,0c0,0,0.1,0,0.1,0h0.1c0.1,0,0.1,0,0.1,0h0.1c0.2,0,0.4,0,0.6,0.1c0.2,0,0.4,0.1,0.6,0.1
		c0.1,0,0.1,0,0.1,0c0.1,0,0.1,0,0.1,0l0.1,0c0,0,0.1,0,0.1,0l0.1,0.1c0.4,0.1,0.8,0.3,1.2,0.5c0.4,0.2,0.8,0.3,1.2,0.5l0.6,0.3
		l0.3,0.1l0.3,0.1c0.4,0.2,0.8,0.3,1.2,0.5c0.2,0.1,0.4,0.2,0.6,0.2c0.1,0.1,0.2,0.1,0.3,0.2c0.7,0.4,0.7,0.5,0.7,0.5
		s0.6,0.1,2.5,0.2c1.9,0.1,3,0.1,3,0.1s0-0.4,0-0.7s-0.2-0.8-0.2-0.9c0,0,0-0.1,0.1-0.2c-1.8-0.7-4.5-1.6-8-2.8
		c-0.1,0.1-0.3,0.4-0.3,0.6c-0.1,0.4-0.1,0.7-0.1,0.7s0.3,0.3,0.4,0.5c0,0.2,0.1,0.7,0.1,0.7s0,0,0.1,0.1c-0.2-0.1-0.3-0.2-0.5-0.3
		C25.7,14.2,25.6,14.2,25.5,14.1z"/>
	<path class="st1" d="M22.9,20.5c0.1,0,0.2,0.1,0.3,0.1c0.1,0,0.1,0,0.2,0.1l0.2,0l0.2,0c0.1,0,0.1,0,0.2,0l0.2,0c0,0,0.1,0,0.1,0
		l0.1,0c0.1,0,0.2,0,0.3,0.1l0.2,0c0.1,0,0.1,0,0.2,0l0.1,0l0.1,0c0.1,0,0.1,0,0.2,0c0.1,0,0.1,0,0.2,0c0,0,0.1,0,0.1,0h0h0h0h0.1
		l0.1-0.1c0.2-0.2,0.3-0.4,0.5-0.6l0.2-0.3l0.1-0.2c0,0,0.1,0,0.1,0c0.1,0,0.2,0,0.3,0c0.1,0,0.2,0,0.3,0l0.3,0c0.1,0,0.2,0,0.3,0
		c0.1,0,0.2,0,0.3,0l0.1,0c0.1,0,0.1,0,0.1,0c0.1,0,0.2,0,0.3,0c0.1,0,0.2,0,0.3,0s0.2,0,0.3,0c0.2,0,0.4,0,0.6,0l0.3,0
		c0.1,0,0.1,0,0.1,0c0.2,0.2,1,0.7,1,0.7s0.3-0.3,0.6-0.6c0.4-0.3,0.9-0.4,0.9-0.4s-0.9,0.2-1.7,0.2l0,0c-0.4-0.1-0.8-0.1-1.2-0.1
		c-0.4-0.1-0.8-0.1-1.2-0.2c-0.1,0-0.2,0-0.3,0l-0.3,0l-0.6-0.1l-0.6-0.1c-0.1,0-0.2,0-0.3-0.1c-0.1,0-0.2,0-0.3-0.1l-0.2,0
		l-0.1,0.1L26,19.6L25.7,20c-0.1,0.2-0.3,0.3-0.4,0.5h0c-0.1,0-0.1,0-0.2,0c-0.1,0-0.1,0-0.2,0l-0.1,0l-0.1,0l-0.2,0l-0.2,0
		c-0.1,0-0.2,0-0.3,0c-0.1,0-0.2,0-0.3-0.1c-0.1,0-0.1,0-0.2,0l-0.2,0l-0.2,0c-0.1,0-0.1,0-0.2,0l-0.3-0.1L22.6,20
		c-0.1,0-0.2-0.1-0.3-0.1c-0.1,0-0.1,0-0.2,0c-0.1,0-0.1,0-0.2,0l-0.2,0l-0.2,0c-0.1,0-0.1,0-0.2,0l-0.2-0.1c-0.1,0-0.2-0.1-0.3-0.1
		c-0.1,0-0.2-0.1-0.3-0.1c-0.1,0-0.2-0.1-0.3-0.1c0.1,0.1,0.2,0.1,0.3,0.2c0,0,0.1,0.1,0.1,0.1c0.1,0,0.1,0.1,0.1,0.1
		c0.1,0.1,0.2,0.1,0.3,0.2l0.1,0.1c0.1,0,0.1,0,0.1,0.1l0.1,0.1l0.1,0.1c0.1,0,0.1,0,0.1,0.1c0.1,0,0.1,0,0.2,0.1
		c0.1,0,0.2,0.1,0.3,0.1L22.9,20.5z"/>
	<path class="st1" d="M25,45.6c3.3-2.1,6.2-4.5,8.6-7.1h-2.4H18.8h-2.4C18.8,41.1,21.7,43.5,25,45.6z M27.2,41.7
		c-0.2,0.9-0.9,1.7-1.8,1.8c-0.2-0.2-0.3-0.5-0.3-0.8c0-0.8,0.5-1.3,1.4-1.6c0.3-0.1,0.5-0.2,0.7-0.4C27.3,41.1,27.3,41.4,27.2,41.7
		z M23.3,39.9c0.4-0.5,1.1-0.8,1.7-0.8c0.1,0,0.3,0,0.4,0c0.6,0.1,1.1,0.4,1.4,0.9c0.1,0.1,0.1,0.1,0.1,0.2c0,0.2-0.3,0.4-0.6,0.5
		c-1.4,0.4-1.7,1.3-1.7,2c0,0.3,0.1,0.5,0.2,0.8c-0.1,0-0.2,0-0.2,0c-0.3-0.1-0.6-0.2-0.9-0.4c0.1-0.3,0.1-0.6,0.2-0.9
		c0-0.4-0.1-0.8-0.3-1.2C23.4,40.7,23.2,40.3,23.3,39.9z M22.8,40.9c0-0.1,0.1-0.2,0.1-0.3c0.1,0.3,0.2,0.5,0.3,0.7
		c0.1,0.3,0.3,0.6,0.3,1c0,0.2,0,0.4-0.1,0.5C22.9,42.3,22.7,41.6,22.8,40.9z"/>
	<path class="st2" d="M33.6,38.5c-2.4,2.6-5.3,5-8.6,7.1c-3.3-2.1-6.2-4.5-8.6-7.1h-0.2h-0.9c2.7,3,5.9,5.7,9.7,8.1
		c3.7-2.4,7-5.1,9.7-8.1h-0.9H33.6z"/>
	<path class="st3" d="M25,46.6c-3.7-2.4-7-5.1-9.7-8.1h-2.8c3.2,3.9,7.2,7.3,11.9,10.2l0.6,0.3l0.6-0.3c4.8-2.9,8.7-6.4,11.9-10.2
		h-2.8C32,41.5,28.8,44.2,25,46.6z"/>
	<path class="st2" d="M18.8,38.5h12.4h2.4c0.5-0.6,1.1-1.2,1.6-1.8h-1.4h-2.7H18.8h-2.7h-1.4c0.5,0.6,1,1.2,1.6,1.8H18.8z"/>
	<path class="st4" d="M34.7,38.5h2.8c0.2-0.2,0.3-0.4,0.5-0.6c0.1-0.1,0.1-0.2,0.2-0.3c0.2-0.3,0.5-0.6,0.7-1h-2.6
		C35.7,37.3,35.2,37.9,34.7,38.5z"/>
	<path class="st4" d="M13.8,36.7h-2.6c0.2,0.3,0.5,0.6,0.7,0.9c0.1,0.1,0.1,0.2,0.2,0.3c0.2,0.2,0.3,0.4,0.5,0.6h2.8
		C14.8,37.9,14.3,37.3,13.8,36.7z"/>
	<path class="st5" d="M16.2,38.5h0.2c-0.5-0.6-1.1-1.2-1.6-1.8h-1c0.5,0.6,1,1.2,1.5,1.8H16.2z"/>
	<path class="st2" d="M44.7,6.5C38.5,4.2,31.4,2.9,24,2.9c-6.5,0-13,1-18.7,2.9c0,0.1,0,0.2,0,0.3v0c-0.1,4.6-0.3,11.5,2.2,19
		c0.1,0.2,0.1,0.3,0.2,0.5c0.1,0.2,0.1,0.4,0.2,0.6C8,26.3,8,26.4,8,26.5c0,0.1,0.1,0.2,0.1,0.3c0.1,0.3,0.2,0.5,0.3,0.8l0,0h0.9
		c0-0.1-0.1-0.1-0.1-0.2c0-0.1-0.1-0.2-0.1-0.2C9.1,27,9,26.8,8.9,26.6c0-0.1-0.1-0.1-0.1-0.2c-0.1-0.3-0.2-0.5-0.3-0.7
		c-0.1-0.2-0.2-0.5-0.3-0.7C5.9,17.7,6,11,6.1,6.4C11.6,4.6,17.8,3.7,24,3.7c7,0,13.9,1.2,19.9,3.4c0.1,4.5,0.1,11-2.2,17.8
		c-0.1,0.2-0.2,0.5-0.3,0.7c-0.1,0.2-0.1,0.4-0.2,0.6c0,0.1-0.1,0.2-0.1,0.2c0,0.1-0.1,0.2-0.1,0.3c0,0.1-0.1,0.2-0.1,0.3
		c-0.1,0.2-0.1,0.3-0.2,0.5h0.9l0,0c0.1-0.3,0.2-0.5,0.3-0.8c0-0.1,0.1-0.2,0.1-0.3c0-0.1,0.1-0.2,0.1-0.3c0.1-0.2,0.1-0.4,0.2-0.6
		c0.1-0.2,0.1-0.3,0.2-0.5C44.9,17.9,44.8,11.1,44.7,6.5z"/>
	<path class="st5" d="M33.9,38.5h0.9c0.5-0.6,1-1.2,1.5-1.8h-1c-0.5,0.6-1,1.2-1.6,1.8H33.9z"/>
	<path class="st1" d="M41,26.8c0-0.1,0.1-0.2,0.1-0.3c0-0.1,0.1-0.2,0.1-0.2c0.1-0.2,0.1-0.4,0.2-0.6c0.1-0.2,0.2-0.5,0.3-0.7
		C44,18.1,44,11.6,43.9,7.1c-6-2.2-12.8-3.4-19.9-3.4c-6.3,0-12.4,0.9-17.9,2.7C6,11,5.9,17.7,8.3,24.9c0.1,0.2,0.2,0.5,0.3,0.7
		c0.1,0.3,0.2,0.5,0.3,0.7c0,0.1,0.1,0.1,0.1,0.2C9,26.8,9,27,9.1,27.1c0,0.1,0.1,0.2,0.1,0.2c0,0.1,0.1,0.1,0.1,0.2l0,0h1.9h1.5v0
		c0,0,0,0,0-0.1c0,0,0,0,0,0c0,0,0,0,0-0.1c0,0,0,0,0,0c0,0,0,0,0-0.1c0,0,0,0,0,0c0,0,0,0,0-0.1c0,0,0,0,0,0c0,0,0-0.1,0-0.1
		c0,0,0,0,0,0c0,0,0,0,0-0.1c0,0,0,0,0-0.1c0,0,0,0,0-0.1c0,0,0,0,0,0c0,0,0-0.1,0-0.1c0,0,0,0,0,0c0,0,0-0.1,0-0.1c0,0,0,0,0,0
		c0,0,0-0.1,0-0.1c0,0,0,0,0-0.1c0,0,0,0,0-0.1c0,0,0,0,0-0.1c0,0,0-0.1,0-0.1c0,0,0,0,0,0c0,0,0-0.1,0-0.1c0,0,0,0,0-0.1
		c0,0,0-0.1,0-0.1c0,0,0,0,0-0.1c0,0,0-0.1,0-0.1c0,0,0,0,0,0c0,0,0-0.1,0-0.1c0.4-1.3,0.8-2.8,1.2-3.4c0.7-1.3,1.7-4,1.7-4.5
		s0.5-2.6,1.2-3.6c0.7-1,1.4-1.2,2.1-1.8c0.7-0.5,1.1-0.9,1.3-1c0.2-0.1,0.1-0.3,0.1-0.3s-0.3-0.1-0.3-0.2c0,0-0.1-0.3-0.1-0.8
		c-6.8-2.3-8.2-2.8-8.5-2.9c-0.6-0.3-0.3-2,0.8-1.8c0.6,0.1,4.1,1.5,7.8,3c0-0.1,0.1-0.3,0.1-0.4c0.3-1.4,0.7-2,0.9-2.1
		c0.2-0.1,0.9-0.6,1.7-0.7c0.9-0.1,2.4,0.1,3.1,0.5s1,1.4,1,1.4s0.5,0.9,0.6,1.1c0,0.1,0.1,2.1-0.4,2.9c0,0.1-0.1,0.1-0.1,0.1
		c0.8,0.3,1.4,0.6,1.8,0.7c2.7,1.1,4.4,1.8,5.5,2.1c0.1-0.2,0.2-0.4,0.3-0.5c0.1-0.2,0.2-0.6,0.2-0.7c0-0.1,0.3,0.1,0.4,0.2
		c0.1,0.1,0.1,0.3,0.1,0.3s1.7,0.7,1.8,0.9c0.1,0.2,0.1,0.4,0.1,0.4s0.3-0.4,0.6-0.3c0.3,0,2.3,0.9,2.5,1.1c0.1,0.3,0.1,0.5,0.1,0.5
		s0.3,0.4,0,1.1c-0.3,0.6-0.9,0.1-0.9,0.1s-0.8,0.7-1,0.7c-0.1,0-0.3,0-0.3,0s-0.1,0.4-0.6,0.4c-0.5,0-0.9,0.2-1,0.2
		c-0.1,0.1-0.8,0.4-0.8,0.4s0.3,0.2,0.2,0.4c0,0.2-1.5,3-2.6,4.1c-1.1,1.1-1.3,2-1.7,2.1c-0.4,0.1-1.6-0.2-3-1.1
		c-1.4-1-2.1-1.7-2.1-1.7s-0.4,1.5-0.9,3c0,0.1-0.1,0.2-0.1,0.2c0,0,0,0,0,0.1c0,0.1-0.1,0.2-0.1,0.2l0,0c0,0.1-0.1,0.2-0.1,0.2
		c0,0,0,0,0,0c-0.1,0.2-0.1,0.3-0.2,0.5c0,0,0,0,0,0c-0.1,0.1-0.1,0.3-0.2,0.4c0,0,0,0,0,0c0,0.1-0.1,0.1-0.1,0.2l0,0h11.3h2.3h1.9
		c0.1-0.2,0.1-0.3,0.2-0.5C41,27,41,26.9,41,26.8z"/>
	<polygon class="st3" points="27.1,30.9 26.9,32.1 27.6,32.1 27.6,32 27.8,30.9 27.7,30.9 	"/>
	<path class="st3" d="M44.1,26.8c0.1-0.2,0.1-0.3,0.2-0.5c0.1-0.2,0.1-0.3,0.2-0.5c0-0.1,0-0.1,0.1-0.2c2.5-7.7,2.4-14.8,2.2-19.5
		l0-1l-0.6-0.3C39.5,2.2,31.9,0.8,24,0.8c-7,0-14,1.1-20.1,3.3L3.3,4.3l0,0.7c0,0.3,0,0.7,0,1.1v0C3.1,10.9,3,17.9,5.5,25.6
		c0,0.1,0,0.1,0.1,0.2c0.1,0.3,0.2,0.6,0.3,0.9l0,0c0,0,0,0.1,0,0.1C6,27,6.1,27.3,6.2,27.6H3.4H1.2c1.3,3.3,2.9,6.3,5,9.1h2.7h2.4
		h2.6h1h1.4h2.7h12.4h2.7h1.4h1h2.6h2.4h2.7c0.4-0.5,0.8-1.1,1.1-1.6c1.1-1.6,2-3.3,2.9-5.1c0.4-0.8,0.7-1.6,1-2.4h-2.3h-2.7
		C44,27.3,44.1,27.1,44.1,26.8z M12.3,34.1h-0.9l0.2-1.2l-0.5-2.8h1l0.2,1.8l0.9-1.8H14L12.5,33L12.3,34.1z M15.4,34.1l-0.3-1.6
		l-0.5,0.7l-0.2,0.9h-0.9l0.7-3.9h0.9L14.9,32l1.1-1.8h1l-1.1,1.7l0.5,2.3L15.4,34.1L15.4,34.1z M18.5,34.1l-0.3-1.6l-0.5,0.7
		l-0.2,0.9h-0.9l0.7-3.9h0.9L18,32l1.1-1.8h1L19,31.9l0.5,2.3L18.5,34.1L18.5,34.1z M26.2,14.5c0,0-0.1-0.5-0.1-0.7
		c0-0.2-0.4-0.5-0.4-0.5s0-0.3,0.1-0.7c0.1-0.2,0.2-0.5,0.3-0.6c3.5,1.2,6.2,2.2,8,2.8C34.2,15,34.2,15,34.1,15
		c0,0.1,0.2,0.6,0.2,0.9c0,0.3,0,0.7,0,0.7s-1,0.1-3-0.1c-1.9-0.1-2.5-0.2-2.5-0.2s-0.1-0.1-0.7-0.5c-0.1,0-0.2-0.1-0.3-0.2
		c-0.2-0.1-0.4-0.1-0.6-0.2c-0.4-0.2-0.8-0.3-1.2-0.5l-0.3-0.1l-0.3-0.1L25,14.5c-0.4-0.2-0.8-0.3-1.2-0.5c-0.4-0.2-0.8-0.3-1.2-0.5
		l-0.1-0.1c0,0-0.1,0-0.1,0l-0.1,0c-0.1,0-0.1,0-0.1,0c-0.1,0-0.1,0-0.1,0c-0.2-0.1-0.4-0.1-0.6-0.1c-0.2,0-0.4-0.1-0.6-0.1h-0.1
		c-0.1,0-0.1,0-0.1,0h-0.1c0,0-0.1,0-0.1,0c-0.1,0-0.1,0-0.1,0l-0.1,0c0,0-0.1,0-0.1,0l-0.1,0l-0.1,0l-0.1,0l-0.1,0c0,0-0.1,0-0.1,0
		c-0.1,0-0.1,0-0.1,0c0,0-0.1,0-0.1,0l-0.1,0l-0.1,0c0,0-0.1,0-0.1,0c-0.1,0-0.1,0-0.1,0.1c0,0,0.1-0.1,0.1-0.1c0,0,0,0,0.1,0l0.1,0
		l0.1,0c0,0,0,0,0.1,0c0,0,0.1-0.1,0.1-0.1c0.2-0.1,0.4-0.2,0.6-0.2c0,0,0.1,0,0.1,0l0.1,0c0,0,0.1,0,0.1,0l0.1,0c0.1,0,0.2,0,0.3,0
		c0.1,0,0.1,0,0.2,0c0,0,0.1,0,0.1,0h0.1h0.1c0,0,0.1,0,0.1,0c0.1,0,0.1,0,0.2,0h0h0l0.1,0l0.1,0h0l0,0c0.1,0,0.2,0,0.3,0.1
		c0.1,0,0.1,0,0.2,0c0.1,0,0.1,0,0.2,0c0.1,0,0.2,0.1,0.3,0.1c0.4,0.1,0.8,0.3,1.2,0.5c0.4,0.2,0.8,0.3,1.2,0.5
		c0.1,0.1,0.2,0.1,0.3,0.1c0.1,0.1,0.2,0.1,0.3,0.1c0.2,0.1,0.3,0.2,0.5,0.3C26.3,14.5,26.2,14.5,26.2,14.5z M22.3,20.3
		c-0.1,0-0.1,0-0.2-0.1c-0.1,0-0.1,0-0.1-0.1l-0.1-0.1L21.7,20c-0.1,0-0.1,0-0.1-0.1l-0.1-0.1c-0.1-0.1-0.2-0.1-0.3-0.2
		c-0.1,0-0.1-0.1-0.1-0.1c-0.1,0-0.1-0.1-0.1-0.1c-0.1-0.1-0.2-0.1-0.3-0.2c0.1,0,0.2,0.1,0.3,0.1s0.2,0.1,0.3,0.1
		c0.1,0,0.2,0.1,0.3,0.1l0.2,0.1c0.1,0,0.1,0,0.2,0l0.2,0l0.2,0c0.1,0,0.1,0,0.2,0c0.1,0,0.1,0,0.2,0c0.1,0,0.2,0.1,0.3,0.1l0.3,0.1
		l0.3,0.1c0.1,0,0.1,0,0.2,0l0.2,0l0.2,0c0.1,0,0.1,0,0.2,0c0.1,0,0.2,0,0.3,0.1c0.1,0,0.2,0,0.3,0l0.2,0l0.2,0l0.1,0l0.1,0
		c0.1,0,0.1,0,0.2,0c0.1,0,0.1,0,0.2,0h0c0.1-0.2,0.3-0.3,0.4-0.5l0.3-0.3l0.3-0.3l0.1-0.1l0.2,0c0.1,0,0.2,0,0.3,0.1
		c0.1,0,0.2,0,0.3,0.1l0.6,0.1l0.6,0.1l0.3,0c0.1,0,0.2,0,0.3,0c0.4,0.1,0.8,0.1,1.2,0.2c0.4,0.1,0.8,0.1,1.2,0.1l0,0
		c0.8-0.1,1.7-0.2,1.7-0.2s-0.5,0.1-0.9,0.4c-0.4,0.3-0.6,0.6-0.6,0.6s-0.7-0.6-1-0.7c-0.1,0-0.1,0-0.1,0l-0.3,0c-0.2,0-0.4,0-0.6,0
		c-0.1,0-0.2,0-0.3,0c-0.1,0-0.2,0-0.3,0c-0.1,0-0.2,0-0.3,0c-0.1,0-0.1,0-0.1,0l-0.1,0c-0.1,0-0.2,0-0.3,0c-0.1,0-0.2,0-0.3,0
		l-0.3,0c-0.1,0-0.2,0-0.3,0s-0.2,0-0.3,0c0,0-0.1,0-0.1,0L26.6,20l-0.2,0.3c-0.2,0.2-0.3,0.4-0.5,0.6L25.7,21h-0.1h0h0h0
		c0,0-0.1,0-0.1,0c-0.1,0-0.1,0-0.2,0s-0.1,0-0.2,0L25,21l-0.1,0c-0.1,0-0.1,0-0.2,0l-0.2,0c-0.1,0-0.2,0-0.3-0.1l-0.1,0
		c0,0-0.1,0-0.1,0l-0.2,0c-0.1,0-0.1,0-0.2,0l-0.2,0l-0.2,0c-0.1,0-0.1,0-0.2-0.1c-0.1,0-0.2-0.1-0.3-0.1l-0.3-0.1
		C22.5,20.4,22.4,20.3,22.3,20.3z M22.5,29.3l-0.1,0.6h-0.6l0.1-0.6H22.5z M21.6,29.3l-0.1,0.6h-0.6l0.1-0.6H21.6z M21.8,34.1h-1.6
		l-0.5-0.5l0.5-2.9l0.5-0.5h1.6l0.5,0.5l-0.5,2.9L21.8,34.1z M25.2,33.6l-0.5,0.5h-1.5l-0.5-0.5l0.1-0.7h0.9l-0.1,0.5l0.1,0.1h0.5
		l0.1-0.1l0.1-0.7l0,0l-1-0.2L23,32l0.2-1.3l0.5-0.5h1.5l0.5,0.5l-0.1,0.7h-0.9l0.1-0.5l-0.1-0.1h-0.5L24.1,31L24,31.6l0,0l1,0.2
		l0.4,0.4L25.2,33.6z M28,32.8h-1.3l-0.2,1.3h-0.9l0.7-3.9h2l0.5,0.5l-0.3,1.6L28,32.8z M31.1,31.7L31,32.5h-1.1l-0.2,0.9h1.3
		l-0.1,0.7h-2.2l0.7-3.9h2.2l-0.1,0.7h-1.2L30,31.7L31.1,31.7L31.1,31.7z M33.8,33.6l-0.5,0.5h-1.5l-0.5-0.5l0.1-0.7h0.9l-0.1,0.5
		l0.1,0.1h0.5l0.1-0.1l0.1-0.7l0,0l-1-0.2L31.5,32l0.2-1.3l0.5-0.5h1.5l0.5,0.5l-0.1,0.7h-0.9l0.1-0.5l-0.1-0.1h-0.5L32.6,31
		l-0.1,0.6l0,0l1,0.2l0.4,0.4L33.8,33.6z M36.1,33.4l-0.1,0.7H34l0.1-0.7h0.5l0.4-2.5h-0.5l0.1-0.7h1.9l-0.1,0.7H36l-0.4,2.5H36.1z
		 M39.3,31.4h-0.9l0.1-0.5l-0.1-0.1h-0.5L37.8,31l-0.1,0.6l0,0l1,0.2l0.4,0.4l-0.2,1.3l-0.5,0.5h-1.5l-0.5-0.5l0.1-0.7h0.9l-0.1,0.5
		l0.1,0.1h0.5l0.1-0.1l0.1-0.7l0,0l-1-0.2L36.6,32l0.2-1.3l0.5-0.5h1.5l0.5,0.5L39.3,31.4z M42.3,25.6c-0.1,0.2-0.1,0.4-0.2,0.6
		c0,0.1-0.1,0.2-0.1,0.3c0,0.1-0.1,0.2-0.1,0.3c-0.1,0.3-0.2,0.5-0.3,0.8l0,0h-0.9h-1.9h-2.3H25.3l0,0c0-0.1,0.1-0.1,0.1-0.2
		c0,0,0,0,0,0c0.1-0.1,0.1-0.3,0.2-0.4c0,0,0,0,0,0c0.1-0.1,0.1-0.3,0.2-0.5c0,0,0,0,0,0c0-0.1,0.1-0.2,0.1-0.2l0,0
		c0-0.1,0.1-0.2,0.1-0.2c0,0,0,0,0-0.1c0-0.1,0.1-0.2,0.1-0.2c0.5-1.5,0.9-3,0.9-3s0.7,0.7,2.1,1.7c1.4,1,2.5,1.2,3,1.1
		c0.4-0.1,0.6-1,1.7-2.1c1.1-1.1,2.5-3.9,2.6-4.1c0-0.2-0.2-0.4-0.2-0.4s0.6-0.3,0.8-0.4s0.6-0.2,1-0.2c0.5,0,0.6-0.4,0.6-0.4
		s0.2,0,0.3,0c0.1,0,1-0.7,1-0.7s0.6,0.5,0.9-0.1c0.3-0.6,0-1.1,0-1.1s0-0.2-0.1-0.5s-2.2-1.1-2.5-1.1c-0.3,0-0.6,0.3-0.6,0.3
		s0-0.2-0.1-0.4c-0.1-0.2-1.8-0.9-1.8-0.9s0-0.2-0.1-0.3c-0.1-0.1-0.3-0.3-0.4-0.2c0,0.1-0.1,0.5-0.2,0.7c0,0.1-0.1,0.3-0.3,0.5
		c-1-0.4-2.7-1-5.5-2.1c-0.4-0.2-1.1-0.4-1.8-0.7c0,0,0.1-0.1,0.1-0.1c0.5-0.8,0.4-2.8,0.4-2.9c0-0.1-0.6-1.1-0.6-1.1
		s-0.3-0.9-1-1.4S24.1,5,23.2,5.2c-0.9,0.1-1.6,0.6-1.7,0.7C21.4,5.9,21,6.6,20.6,8c0,0.1-0.1,0.3-0.1,0.4c-3.7-1.5-7.2-2.9-7.8-3
		c-1.1-0.3-1.4,1.5-0.8,1.8c0.3,0.1,1.6,0.5,8.5,2.9c0,0.5,0.1,0.7,0.1,0.8c0,0.1,0.3,0.2,0.3,0.2s0,0.2-0.1,0.3
		c-0.2,0.1-0.7,0.5-1.3,1c-0.7,0.5-1.3,0.8-2.1,1.8c-0.7,1-1.2,3.1-1.2,3.6c0,0.5-1,3.2-1.7,4.5c-0.3,0.7-0.8,2.1-1.2,3.4
		c0,0,0,0.1,0,0.1c0,0,0,0,0,0c0,0,0,0.1,0,0.1c0,0,0,0,0,0.1c0,0,0,0.1,0,0.1c0,0,0,0,0,0.1c0,0,0,0.1,0,0.1c0,0,0,0,0,0
		c0,0,0,0.1,0,0.1c0,0,0,0,0,0.1c0,0,0,0,0,0.1c0,0,0,0,0,0.1c0,0,0,0.1,0,0.1c0,0,0,0,0,0c0,0,0,0.1,0,0.1c0,0,0,0,0,0
		c0,0,0,0.1,0,0.1c0,0,0,0,0,0c0,0,0,0,0,0.1s0,0,0,0.1c0,0,0,0,0,0.1c0,0,0,0,0,0c0,0,0,0.1,0,0.1c0,0,0,0,0,0c0,0,0,0,0,0.1
		c0,0,0,0,0,0c0,0,0,0,0,0.1s0,0,0,0c0,0,0,0,0,0.1c0,0,0,0,0,0c0,0,0,0,0,0.1v0h-1.5H9.3l0,0H8.4l0,0c-0.1-0.3-0.2-0.5-0.3-0.8
		c0-0.1-0.1-0.2-0.1-0.3c0-0.1-0.1-0.2-0.1-0.3c-0.1-0.2-0.1-0.4-0.2-0.6c-0.1-0.2-0.1-0.3-0.2-0.5c-2.5-7.4-2.3-14.4-2.2-19v0
		c0-0.1,0-0.2,0-0.3C11.1,3.9,17.5,2.9,24,2.9c7.3,0,14.4,1.3,20.6,3.6c0.1,4.6,0.2,11.4-2.2,18.6C42.4,25.3,42.4,25.5,42.3,25.6z"
		/>
	<polygon class="st3" points="21.2,30.9 21.1,31 20.7,33.3 20.8,33.4 21.4,33.4 21.5,33.3 21.9,31 21.8,30.9 	"/>
	<polygon class="st1" points="13.1,30.2 12.3,31.9 12.1,30.2 11.1,30.2 11.6,33 11.4,34.1 12.3,34.1 12.5,33 14,30.2 	"/>
	<polygon class="st1" points="17,30.2 15.9,30.2 14.9,32 15.2,30.2 14.3,30.2 13.6,34.1 14.5,34.1 14.7,33.2 15.1,32.6 15.4,34.1 
		16.3,34.1 15.9,31.9 	"/>
	<polygon class="st1" points="20,30.2 19,30.2 18,32 18.3,30.2 17.4,30.2 16.7,34.1 17.6,34.1 17.7,33.2 18.2,32.6 18.5,34.1 
		19.4,34.1 18.9,31.9 	"/>
	<polygon class="st1" points="21.8,29.8 22.4,29.8 22.5,29.3 21.9,29.3 	"/>
	<path class="st1" d="M22.3,30.2h-1.6l-0.5,0.5l-0.5,2.9l0.5,0.5h1.6l0.5-0.5l0.5-2.9L22.3,30.2z M21.5,33.3L21.5,33.3l-0.7,0.1
		l-0.1-0.1l0.4-2.3l0.1-0.1h0.6l0.1,0.1L21.5,33.3z"/>
	<polygon class="st1" points="20.8,29.8 21.4,29.8 21.6,29.3 20.9,29.3 	"/>
	<polygon class="st1" points="24,31.7 24,31.6 24.1,31 24.2,30.9 24.7,30.9 24.8,31 24.7,31.4 25.6,31.4 25.8,30.7 25.3,30.2 
		23.7,30.2 23.2,30.7 23,32 23.4,32.4 24.5,32.6 24.5,32.7 24.4,33.3 24.3,33.4 23.8,33.4 23.7,33.3 23.8,32.9 22.8,32.9 22.7,33.6 
		23.2,34.1 24.7,34.1 25.2,33.6 25.5,32.3 25,31.9 	"/>
	<path class="st1" d="M28.3,30.2h-2l-0.7,3.9h0.9l0.2-1.3H28l0.5-0.5l0.3-1.6L28.3,30.2z M27.6,32L27.6,32l-0.8,0.1l0.2-1.3h0.7
		l0.1,0.1L27.6,32z"/>
	<polygon class="st1" points="31.4,30.9 31.5,30.2 29.3,30.2 28.6,34.1 30.8,34.1 30.9,33.4 29.7,33.4 29.8,32.5 31,32.5 31.1,31.7 
		30,31.7 30.1,30.9 	"/>
	<polygon class="st1" points="32.6,31.7 32.5,31.6 32.6,31 32.7,30.9 33.2,30.9 33.3,31 33.2,31.4 34.1,31.4 34.3,30.7 33.8,30.2 
		32.3,30.2 31.8,30.7 31.5,32 32,32.4 33,32.6 33,32.7 32.9,33.3 32.8,33.4 32.3,33.4 32.2,33.3 32.3,32.9 31.4,32.9 31.2,33.6 
		31.7,34.1 33.3,34.1 33.8,33.6 34,32.3 33.6,31.9 	"/>
	<polygon class="st1" points="36.5,30.9 36.6,30.2 34.7,30.2 34.6,30.9 35.1,30.9 34.6,33.4 34.1,33.4 34,34.1 35.9,34.1 36.1,33.4 
		35.6,33.4 36,30.9 	"/>
	<polygon class="st1" points="37.4,30.2 36.9,30.7 36.7,32 37.1,32.4 38.1,32.6 38.1,32.7 38,33.3 37.9,33.4 37.4,33.4 37.3,33.3 
		37.4,32.9 36.5,32.9 36.4,33.6 36.9,34.1 38.4,34.1 38.9,33.6 39.1,32.3 38.7,31.9 37.7,31.7 37.6,31.6 37.8,31 37.8,30.9 
		38.3,30.9 38.4,31 38.3,31.4 39.3,31.4 39.4,30.7 38.9,30.2 	"/>
	<path class="st3" d="M23.4,42.2c0-0.3-0.1-0.6-0.3-1c-0.1-0.2-0.2-0.5-0.3-0.7c0,0.1-0.1,0.2-0.1,0.3c-0.1,0.7,0.1,1.4,0.5,1.9
		C23.4,42.6,23.4,42.4,23.4,42.2z"/>
	<path class="st3" d="M23.8,42.3c0,0.3-0.1,0.6-0.2,0.9c0.3,0.2,0.6,0.3,0.9,0.4c0.1,0,0.2,0,0.2,0c-0.1-0.3-0.2-0.5-0.2-0.8
		c0-0.7,0.3-1.6,1.7-2c0.3-0.1,0.6-0.3,0.6-0.5c0-0.1-0.1-0.1-0.1-0.2c-0.3-0.5-0.9-0.8-1.4-0.9c-0.1,0-0.3,0-0.4,0
		c-0.7,0-1.3,0.3-1.7,0.8c0,0.5,0.1,0.8,0.3,1.2C23.7,41.4,23.9,41.8,23.8,42.3z"/>
	<path class="st3" d="M25.1,42.7c0,0.3,0.1,0.6,0.3,0.8c0.9-0.1,1.7-0.9,1.8-1.8c0.1-0.3,0.1-0.6,0-0.9c-0.2,0.2-0.4,0.3-0.7,0.4
		C25.6,41.4,25.1,42,25.1,42.7z"/>
</g>
</svg>
